<svg width="13" height="15" viewBox="0 0 13 15" fill="none" xmlns="http://www.w3.org/2000/svg">
<path fill-rule="evenodd" clip-rule="evenodd" d="M11.9084 12.9C11.9084 13.5 11.4122 14 10.8168 14H2.08397C1.48855 14 0.992366 13.5 0.992366 12.9V5C0.992366 4.5 1.48855 4 2.08397 4H10.916C11.5114 4 12.0076 4.5 12.0076 5.1V12.9H11.9084ZM6.45038 1C7.64122 1 8.53435 1.9 8.73282 3H4.16794C4.36641 1.9 5.25954 1 6.45038 1ZM10.8168 3H9.72519C9.52672 1.3 8.1374 0 6.45038 0C4.76336 0 3.37405 1.3 3.17557 3H2.08397C0.89313 3 0 3.9 0 5.1V13C0 14.1 0.89313 15 2.08397 15H10.916C12.0076 15 13 14.1 13 12.9V5C12.9008 3.9 12.0076 3 10.8168 3Z" fill="white"/>
</svg>
