<svg width="13" height="16" viewBox="0 0 13 16" fill="none" xmlns="http://www.w3.org/2000/svg">
<path d="M12.586 5.45432C12.4928 5.52691 10.8575 6.4498 10.8575 8.50291C10.8575 10.8775 12.9379 11.7175 13 11.7382C12.9897 11.79 12.6688 12.8892 11.9028 14.009C11.2198 14.9942 10.5055 15.9792 9.41879 15.9792C8.33205 15.9792 8.05254 15.3467 6.80015 15.3467C5.57882 15.3467 5.14408 16 4.15044 16C3.1568 16 2.46331 15.0875 1.66639 13.9676C0.745205 12.6506 0 10.6078 0 8.66877C0 5.55793 2.01835 3.90914 4.00553 3.90914C5.0613 3.90914 5.941 4.60392 6.60342 4.60392C7.23478 4.60392 8.2181 3.86767 9.41869 3.86767C9.87417 3.86777 11.5096 3.90934 12.586 5.45432ZM8.84956 2.5509C9.34633 1.95984 9.69829 1.14066 9.69829 0.321486C9.69829 0.20743 9.68797 0.0933735 9.66722 0C8.85988 0.0311245 7.89731 0.539258 7.31766 1.21325C6.86228 1.73173 6.43787 2.5509 6.43787 3.38052C6.43787 3.50492 6.45861 3.62942 6.46893 3.67088C6.52064 3.68123 6.60352 3.69167 6.6863 3.69167C7.41086 3.69157 8.32162 3.20422 8.84956 2.5509Z" fill="white"/>
</svg>
