<svg width="13" height="13" viewBox="0 0 13 13" fill="none" xmlns="http://www.w3.org/2000/svg">
<path d="M12.8426 12.0839L9.42355 8.66596C10.2849 7.61146 10.708 6.26646 10.6055 4.90895C10.503 3.55144 9.88269 2.28518 8.8728 1.37187C7.86291 0.458562 6.54062 -0.0319821 5.17921 0.00161888C3.8178 0.0352199 2.52133 0.590399 1.55776 1.55241C0.594186 2.51443 0.0371557 3.80975 0.00179254 5.17066C-0.0335706 6.53158 0.455436 7.85406 1.36775 8.86478C2.28006 9.87551 3.54594 10.4972 4.90377 10.6014C6.2616 10.7057 7.60758 10.2844 8.66354 9.42474L12.0826 12.8427C12.1325 12.8925 12.1917 12.9321 12.2569 12.9591C12.3221 12.9861 12.392 13 12.4626 13C12.5332 13 12.603 12.9861 12.6683 12.9591C12.7335 12.9321 12.7927 12.8925 12.8426 12.8427C12.8925 12.7928 12.9321 12.7335 12.9591 12.6684C12.9861 12.6032 13 12.5333 13 12.4628C13 12.3922 12.9861 12.3224 12.9591 12.2572C12.9321 12.192 12.8925 12.1328 12.8426 12.0829V12.0839ZM1.09963 5.32128C1.09982 4.48714 1.34743 3.67179 1.81115 2.97832C2.27487 2.28485 2.93387 1.74441 3.70483 1.42533C4.47579 1.10625 5.32408 1.02287 6.14244 1.18572C6.9608 1.34857 7.71249 1.75034 8.30244 2.34024C8.8924 2.93014 9.29413 3.68166 9.45685 4.49979C9.61956 5.31792 9.53595 6.16591 9.21659 6.93653C8.89723 7.70716 8.35645 8.36582 7.66264 8.82922C6.96884 9.29263 6.15316 9.53997 5.31874 9.53997C4.19991 9.53893 3.12722 9.0941 2.33618 8.30314C1.54514 7.51218 1.10041 6.43974 1.09963 5.32128Z" fill="white"/>
</svg>
