<svg width="26" height="22" viewBox="0 0 26 22" fill="none" xmlns="http://www.w3.org/2000/svg">
<path d="M5.42459 18.7577C5.03673 19.555 4.40452 19.8222 3.58074 19.7934C2.64596 19.7597 1.70847 19.7865 0.772329 19.7851C0.174636 19.7851 0 19.6121 0 19.0166C0 16.2236 0 13.4307 0 10.6377C0 10.0196 0.254508 9.82663 0.856263 9.95094C2.13694 10.2133 3.41761 10.4798 4.70303 10.7208C5.43813 10.8582 6.03109 11.1569 6.28627 11.9282L8.6608 11.5244V11.1672C8.6608 9.20989 8.652 7.25253 8.6696 5.29586C8.67466 4.99065 8.74511 4.69021 8.87605 4.41539C9.52451 3.08301 10.2061 1.76712 10.8675 0.440921C11.0157 0.142853 11.2215 0 11.5586 0C15.4051 0.00641006 19.2516 0.00641006 23.0982 0C23.4197 0 23.6302 0.124996 23.7751 0.412076C24.4696 1.79802 25.1749 3.17916 25.8619 4.56854C25.9474 4.75403 25.9911 4.9565 25.9899 5.16125C25.9966 9.05261 25.9898 12.944 26 16.8367C26 17.2158 25.8761 17.4596 25.5302 17.6197C23.0305 18.7769 20.5463 19.9712 18.0303 21.0921C17.2119 21.4568 16.3212 21.6635 15.4514 21.8956C14.5816 22.1278 13.7009 21.9327 12.8494 21.6992C10.4925 21.0509 8.2567 20.0791 6.04462 19.0448C5.849 18.9514 5.65338 18.8628 5.42459 18.7577ZM18.3958 15.731C19.2988 15.5112 20.17 15.288 21.0458 15.0881C21.9847 14.8746 22.9303 14.7104 23.8888 14.9783C24.2218 15.0717 24.5467 15.1905 24.8838 15.3004V5.52868H20.5815V5.92084C20.5815 6.64197 20.5815 7.3631 20.5815 8.08286C20.5815 8.59178 20.3784 8.79919 19.8911 8.79987C18.1763 8.80354 16.4615 8.80354 14.7467 8.79987C14.2844 8.79987 14.0847 8.59864 14.0807 8.13163C14.0746 7.38852 14.0807 6.64472 14.0807 5.90161V5.53486H9.76819V11.488C10.5805 11.8218 11.3338 12.1466 12.098 12.4419C12.8013 12.7125 13.5094 12.9728 14.2275 13.1974C14.9153 13.4124 15.6314 13.5408 16.311 13.7723C17.2688 14.1047 18.163 14.547 18.3958 15.731ZM24.8825 16.6925C24.6246 16.5105 24.4432 16.3388 24.2293 16.2392C23.6411 15.9625 22.984 15.8735 22.3448 15.9837C21.4574 16.1355 20.5774 16.3367 19.7049 16.5483C19.0923 16.6959 18.4432 16.8024 17.899 17.0977C17.2187 17.4658 16.5269 17.5949 15.7891 17.5881C14.5179 17.5757 13.2846 17.2969 12.0581 16.9954C11.4239 16.8388 10.795 16.6568 10.1682 16.4713C9.85686 16.3793 9.69915 16.0888 9.77428 15.81C9.85348 15.5167 10.106 15.3642 10.4322 15.4171C10.5209 15.4315 10.6082 15.457 10.6955 15.4782C11.8672 15.7612 13.0342 16.0627 14.2113 16.3196C15.029 16.4981 15.8663 16.5812 16.6955 16.4143C16.9202 16.369 17.2072 16.2028 17.2972 16.0112C17.4231 15.744 17.1869 15.503 16.971 15.3244C16.9048 15.2623 16.8294 15.2111 16.7476 15.1726C16.246 14.9728 15.7526 14.7413 15.2361 14.595C14.1206 14.2805 12.9692 14.0978 11.9112 13.5806C11.3237 13.2936 10.7341 12.9852 10.1121 12.8025C8.87267 12.4378 7.65562 12.7668 6.45279 13.082C6.36276 13.1061 6.26461 13.2716 6.24972 13.3835C6.05545 14.7063 5.88014 16.0318 5.68722 17.3553C5.65541 17.5716 5.70821 17.6719 5.90857 17.7673C8.09966 18.8078 10.3185 19.7892 12.6423 20.5008C13.4816 20.7569 14.3413 21.0371 15.23 20.8098C16.0687 20.5949 16.9189 20.3806 17.7115 20.0413C19.4849 19.2858 21.2313 18.45 22.9797 17.6375C23.5903 17.3532 24.1873 17.0386 24.8825 16.6932V16.6925ZM1.10807 18.6904C1.97922 18.6904 2.81247 18.6904 3.64505 18.6904C4.28471 18.6904 4.42889 18.5674 4.52027 17.9164C4.77072 16.1421 5.01891 14.3672 5.26484 12.5917C5.319 12.2043 5.17482 11.9735 4.8005 11.8836C4.42618 11.7936 4.03088 11.716 3.64505 11.637C2.80841 11.4667 1.97245 11.2991 1.1101 11.1254L1.10807 18.6904ZM15.008 1.10848C13.9412 1.10848 12.9178 1.10436 11.8943 1.11741C11.8144 1.11741 11.7068 1.22112 11.6621 1.30491C11.4002 1.79734 11.1518 2.29663 10.9013 2.79525C10.6393 3.31858 10.3801 3.8426 10.108 4.39135H14.2018C14.4685 3.30416 14.7332 2.22383 15.008 1.1078V1.10848ZM20.457 4.38792H24.5291C24.5119 4.32786 24.4911 4.26892 24.4669 4.21141C23.9775 3.23342 23.4914 2.25337 22.9878 1.28362C22.9411 1.19365 22.7848 1.12016 22.6711 1.11604C22.2094 1.09749 21.7471 1.10848 21.2848 1.10848H19.6494C19.9249 2.22727 20.1896 3.30073 20.457 4.38723V4.38792ZM15.3207 4.38448H19.336C19.0653 3.28012 18.7945 2.19911 18.5319 1.12497H16.1249L15.3207 4.38448ZM15.1853 5.51907V7.68246H19.4714V5.51838L15.1853 5.51907Z" fill="black"/>
</svg>
