<svg width="22" height="25" viewBox="0 0 22 25" fill="none" xmlns="http://www.w3.org/2000/svg">
<path d="M21.2806 20.6085C21.2384 20.5412 21.1962 20.474 21.1567 20.4067L19.3422 17.331C20.0586 16.8058 20.277 16.3418 20.2341 15.471C20.2223 15.148 20.1875 14.8262 20.13 14.5081C19.9688 13.6843 20.1607 13.0637 20.7342 12.5539C21.0346 12.2746 21.3065 11.9667 21.5459 11.6347C22.1535 10.8217 22.1515 10.0599 21.5391 9.23679C21.3162 8.92168 21.0609 8.6303 20.7771 8.36732C20.1818 7.84483 19.9797 7.19458 20.1423 6.3204C20.2236 5.84791 20.2464 5.36739 20.2103 4.88945C20.1695 4.20893 19.7967 3.70998 19.1612 3.48404C18.6525 3.3034 18.1289 3.16683 17.5963 3.07587C16.8581 2.95079 16.3927 2.62466 16.0872 2.01879C15.8458 1.53849 15.5561 1.08342 15.2225 0.660456C14.7578 0.0720687 14.1182 -0.132354 13.4201 0.0841722C12.9145 0.239909 12.4219 0.434618 11.9471 0.666507C11.2844 0.993315 10.6857 0.992642 10.0631 0.666507C9.73168 0.497096 9.39096 0.346012 9.04256 0.213954C7.95395 -0.215065 7.15109 0.035084 6.51426 1.00004C6.28154 1.34639 6.07067 1.70661 5.88286 2.07864C5.60594 2.63542 5.14873 2.95752 4.48468 3.06242C4.10979 3.12159 3.71856 3.20229 3.3219 3.30181C2.23329 3.57549 1.72301 4.24794 1.76791 5.35612C1.7851 5.79629 1.83055 6.23493 1.90399 6.6694C2.00196 7.24165 1.85636 7.70698 1.44541 8.13398C1.09933 8.48056 0.774224 8.84701 0.471784 9.23141C-0.152807 10.0531 -0.156886 10.7901 0.457498 11.6226C0.672554 11.9288 0.920022 12.2115 1.19571 12.4659C1.85092 13.0388 2.06796 13.7361 1.8584 14.5968C1.84245 14.6583 1.83064 14.7207 1.82303 14.7838C1.72573 15.7306 1.62572 16.7083 2.6565 17.3155L2.63676 17.3525C2.59526 17.4298 2.55987 17.4971 2.52177 17.5623L2.35917 17.8407C1.74002 18.9031 1.0991 20.0012 0.465663 21.0805L0.460904 21.0886C0.341837 21.2903 0.162898 21.5969 0.454101 21.8148C0.659051 21.9481 0.90879 21.9964 1.14945 21.9493C1.65021 21.8384 2.15369 21.7012 2.63949 21.5687C2.8436 21.5122 3.05316 21.4557 3.26067 21.4013C3.52398 21.334 3.78865 21.2668 4.05876 21.1955L4.33635 21.1242C4.40802 21.3847 4.47855 21.6427 4.54795 21.8982C4.77112 22.7159 4.98203 23.4885 5.19159 24.2753C5.23241 24.4286 5.34196 24.8361 5.71821 24.8011C5.93729 24.7803 6.17611 24.592 6.27953 24.4212C6.67823 23.7629 7.07284 23.0871 7.45454 22.4341C7.7056 22.0038 7.96483 21.56 8.22337 21.1236C8.28762 21.0013 8.38643 20.9001 8.50778 20.8324C8.76088 20.7234 9.02486 20.6233 9.28001 20.5264C9.5821 20.4121 9.89235 20.2938 10.1944 20.1579C10.7558 19.9051 11.2749 19.9051 11.8274 20.1579C12.0995 20.283 12.3819 20.394 12.6547 20.5015C12.8928 20.5957 13.1391 20.6925 13.3752 20.7981C13.5698 20.8842 13.7154 20.9904 13.7766 21.0973C14.0937 21.6245 14.4094 22.1652 14.7149 22.6876C15.0483 23.2579 15.3953 23.8476 15.7409 24.4226C15.8436 24.5934 16.0811 24.781 16.3056 24.8005H16.3498C16.588 24.8005 16.7479 24.6209 16.8261 24.2625C16.8642 24.0917 16.9139 23.9182 16.9622 23.7515C16.9846 23.6735 17.0071 23.5954 17.0302 23.5174L17.6895 21.1155L17.7501 21.1303C17.8508 21.1552 17.9419 21.178 18.0324 21.2016L18.7897 21.4033C19.4912 21.5916 20.2185 21.7866 20.9356 21.9594C21.1166 22.0031 21.4656 21.9594 21.5772 21.7866C21.6983 21.603 21.6296 21.2849 21.5691 21.1262C21.4906 20.9446 21.394 20.7711 21.2806 20.6085ZM3.61379 17.7976C3.6453 17.7681 3.68249 17.745 3.72315 17.7299C3.76382 17.7148 3.80714 17.7079 3.85056 17.7096L3.89886 17.7163C4.23906 17.766 4.59217 17.8172 4.90243 17.9422C5.1324 18.0357 5.37257 18.2031 5.6352 18.4553C5.74008 18.5698 5.82617 18.6998 5.89034 18.8406C5.92368 18.9031 5.95838 18.9677 5.99512 19.0296C6.05228 19.1251 6.10806 19.2246 6.16249 19.3207C6.27778 19.5371 6.40734 19.7458 6.55032 19.9454C6.70015 20.1359 6.86339 20.3156 7.03883 20.4834C7.10006 20.5446 7.16197 20.6071 7.22457 20.6717L5.9128 22.9317L5.77672 22.4382C5.63657 21.9264 5.50456 21.4423 5.37869 20.9588C5.24262 20.4323 5.16778 20.1418 4.9589 20.0221C4.88305 19.9806 4.79719 19.9604 4.71056 19.9636C4.52346 19.9636 4.27648 20.0308 3.92608 20.1263C3.43893 20.2608 2.96062 20.3872 2.45442 20.5224L1.93801 20.6569L2.14621 20.2978C2.62452 19.4761 3.11711 18.6254 3.61379 17.7976ZM4.24587 16.7009C4.00419 16.6709 3.7659 16.6184 3.53418 16.5442C2.92184 16.3539 2.79665 16.167 2.81502 15.432L2.84972 15.0958C2.88034 14.7999 2.91776 14.4664 2.95178 14.1335C3.03683 13.3676 2.80617 12.6864 2.26663 12.1095L2.06252 11.8963C1.83323 11.6535 1.59645 11.4027 1.38213 11.1438C0.943288 10.618 0.941931 10.2945 1.37669 9.75927C1.58822 9.49502 1.81781 9.24541 2.06388 9.01219C2.83135 8.29738 3.1069 7.40169 2.90551 6.274C2.85102 5.95414 2.821 5.63068 2.8157 5.30636C2.80005 4.71327 2.97151 4.48867 3.54847 4.3441C3.86213 4.26542 4.18599 4.19885 4.50101 4.13429C4.68335 4.09731 4.86569 4.05965 5.04531 4.01998C5.76176 3.86263 6.32102 3.44033 6.70748 2.7652L6.81226 2.5823C7.01638 2.21985 7.23137 1.84261 7.47087 1.50034C7.77432 1.06325 7.9832 0.993987 8.48736 1.16411C8.89818 1.30809 9.2989 1.47882 9.68687 1.67517C10.5564 2.09881 11.4069 2.1015 12.2859 1.6819C12.7105 1.48016 13.1446 1.31272 13.627 1.13117C14.0352 0.976504 14.2958 1.19841 14.4434 1.40821C14.7237 1.81257 14.9809 2.23216 15.2136 2.66501C15.6443 3.47194 16.3322 3.94803 17.3174 4.11412C17.7256 4.18136 18.1011 4.26273 18.459 4.35754C19.0244 4.5075 19.1904 4.72739 19.1687 5.29896C19.1544 5.67889 19.1108 6.06622 19.0687 6.44212C19.0564 6.55172 19.0442 6.66066 19.0326 6.77027C18.9878 7.13692 19.0264 7.50885 19.1458 7.85883C19.2652 8.2088 19.4622 8.52797 19.7225 8.79297L19.8824 8.96176C20.1096 9.20182 20.3444 9.44995 20.5628 9.70144C21.056 10.2797 21.056 10.6146 20.5628 11.1936C20.362 11.4373 20.1471 11.6692 19.9191 11.8882C19.1632 12.5916 18.8856 13.4759 19.0721 14.5908C19.1289 14.9694 19.161 15.3512 19.168 15.7339C19.1816 16.1374 18.9911 16.3922 18.6026 16.4924C18.0583 16.6323 17.5623 16.7466 17.0799 16.8421C16.2634 17.0028 15.677 17.4251 15.2769 18.1325L15.1918 18.2832C14.9877 18.6469 14.7754 19.0228 14.5373 19.3712C14.2141 19.8452 13.9774 19.9185 13.4365 19.7128C13.1384 19.5991 12.8398 19.4673 12.552 19.3402C12.3819 19.2649 12.2056 19.1869 12.0308 19.1136C11.7129 18.972 11.3687 18.8975 11.02 18.8949C10.6714 18.8922 10.326 18.9614 10.006 19.0982C9.82703 19.1728 9.64945 19.2501 9.47187 19.3275C9.15481 19.466 8.82619 19.6085 8.49825 19.7309C8.03287 19.9064 7.80018 19.8365 7.50149 19.4324C7.30152 19.1776 7.13104 18.9015 6.99325 18.6093C6.49249 17.4776 5.59506 16.8515 4.24655 16.7009H4.24587ZM16.0539 18.92L16.1451 18.7458C16.4682 18.1292 16.9955 17.9187 17.6875 17.7916L17.7399 17.7822C18.0215 17.7304 18.1767 17.7015 18.2672 17.7439C18.3577 17.7862 18.4373 17.9153 18.5931 18.1816C18.9448 18.7828 19.2959 19.3839 19.6613 20.0107L20.0436 20.6649L19.6926 20.5735L18.3515 20.2218L17.9977 20.1263C17.8515 20.0873 17.7058 20.0476 17.5596 20.0093C17.0887 19.8876 16.8792 20.0046 16.7499 20.4578C16.5791 21.0691 16.4097 21.679 16.2355 22.3245C16.1811 22.5263 16.1253 22.728 16.0689 22.9297L14.7387 20.6569C15.3844 20.2124 15.7246 19.5547 16.0546 18.9173L16.0539 18.92Z" fill="#1D1D1B"/>
<path d="M11.0049 17.1547C14.7374 17.1547 17.7815 14.1529 17.7951 10.4525C17.7913 8.67203 17.0748 6.96543 15.802 5.70547C14.5292 4.44551 12.8036 3.7346 11.0021 3.72803H10.9879C9.18822 3.73139 7.46305 4.43852 6.18924 5.69495C4.91543 6.95138 4.19649 8.65499 4.18948 10.4336C4.1786 14.1321 7.22535 17.1439 10.9824 17.158L11.0049 17.1547ZM10.9919 16.0882H10.9865C7.82816 16.0882 5.25837 13.5524 5.25769 10.4397C5.26218 8.93982 5.8672 7.5027 6.94054 6.44239C8.01388 5.38208 9.46825 4.7848 10.9858 4.78107H11.0158C14.1795 4.79721 16.7412 7.34106 16.7269 10.4525C16.7165 11.9496 16.1079 13.3819 15.0337 14.4375C13.9595 15.4932 12.5067 16.0865 10.9919 16.0882Z" fill="#1D1D1B"/>
<path d="M15.1704 7.92103C15.1024 7.76637 14.8704 7.64331 14.7153 7.64062C14.5492 7.64062 14.3642 7.75629 14.2478 7.86724C13.7158 8.37829 13.1844 8.90683 12.6707 9.41856L12.4986 9.58936C11.9257 10.1596 11.3535 10.7325 10.7684 11.3155L10.071 12.0122L7.89919 9.85431C7.83115 9.78706 7.76311 9.71982 7.69507 9.65257C7.43177 9.40444 7.15689 9.38763 6.91944 9.6055C6.86513 9.65003 6.82068 9.70513 6.78884 9.76737C6.757 9.82961 6.73846 9.89765 6.73438 9.96728C6.73438 10.1112 6.80241 10.2564 6.94597 10.3983C7.81278 11.2577 8.68072 12.1162 9.54979 12.9738C9.74847 13.1694 9.90904 13.2676 10.0696 13.2676C10.2302 13.2676 10.3921 13.1688 10.5935 12.9697C11.8749 11.7024 13.1551 10.4342 14.4343 9.16505C14.4914 9.10857 14.5499 9.05208 14.6084 8.99627C14.7894 8.8328 14.9575 8.65588 15.1112 8.46706C15.1625 8.38651 15.1945 8.29545 15.2048 8.20082C15.2151 8.10619 15.2033 8.01049 15.1704 7.92103Z" fill="#1D1D1B"/>
</svg>
