<svg width="19" height="23" viewBox="0 0 19 23" fill="none" xmlns="http://www.w3.org/2000/svg">
<path fill-rule="evenodd" clip-rule="evenodd" d="M18.0963 8.00783C18.4456 8.51895 18.3408 9.21433 17.8566 9.59887C17.8326 9.61794 17.7975 9.64264 17.7538 9.67345C17.3523 9.95631 16.221 10.7534 16.221 12.4172C16.221 13.4941 16.6703 14.1922 17.1306 14.6451C17.5191 15.0275 17.9036 15.2195 17.996 15.2657C18.0205 15.278 18.0245 15.28 18.0027 15.2726C18.5602 15.4618 18.892 16.0362 18.7787 16.6159C18.7497 16.7641 18.6143 17.2034 18.3919 17.7424C18.1571 18.3113 17.7953 19.0663 17.2794 19.8353L17.2753 19.8415L17.2753 19.8415C16.8748 20.4304 16.3859 21.1434 15.7959 21.6993C15.1853 22.2746 14.37 22.7743 13.3149 22.7743C12.4314 22.7743 11.8317 22.5059 11.4006 22.313C11.3791 22.3035 11.3581 22.2941 11.3375 22.2849C10.9522 22.1134 10.6705 21.9977 10.1621 21.9977C9.67178 21.9977 9.35263 22.1195 8.9281 22.3028C8.89877 22.3155 8.86843 22.3287 8.83709 22.3424C8.40805 22.5298 7.78975 22.7998 6.97183 22.7998C5.96522 22.7998 5.18357 22.315 4.583 21.7474C4.00272 21.199 3.48815 20.4737 3.01962 19.8024L3.01419 19.7946L3.01423 19.7946C1.78089 17.9967 0.800781 15.2583 0.800781 12.6209C0.800781 8.23837 3.67256 5.59898 6.79735 5.59898C7.46754 5.59898 8.07123 5.76954 8.55586 5.9465C8.6111 4.64094 9.24943 3.45086 9.89326 2.70157C10.7676 1.66764 12.2165 0.853849 13.5681 0.800718C14.1366 0.77837 14.6393 1.16852 14.7608 1.72653C14.8084 1.94463 14.8254 2.17261 14.8254 2.37307C14.8254 3.55265 14.3891 4.68852 13.7636 5.5625C14.7419 5.62869 16.7211 5.9952 18.0963 8.00783ZM12.6296 5.11007C13.0701 4.57559 13.4161 3.88918 13.5678 3.16274C13.6027 2.99545 13.6274 2.82604 13.6405 2.65587C13.6477 2.56175 13.6515 2.46741 13.6515 2.37307C13.6515 2.23304 13.639 2.09302 13.6141 1.97839C13.2848 1.99133 12.9342 2.07144 12.5873 2.20389C12.5483 2.21877 12.5094 2.23432 12.4705 2.25051C11.8342 2.51554 11.2201 2.95216 10.7852 3.46787C10.2369 4.10439 9.7259 5.11007 9.7259 6.12858C9.7259 6.23417 9.73784 6.33983 9.74932 6.4118C9.75444 6.44393 9.75947 6.46934 9.7633 6.48505C9.80449 6.49345 9.8621 6.5019 9.92523 6.50666C9.95753 6.5091 9.99128 6.51056 10.025 6.51056C10.6557 6.51048 11.4036 6.1977 12.0098 5.72132C12.2421 5.53879 12.4535 5.33225 12.6296 5.11007ZM12.5128 6.8137C11.9935 6.9224 11.5182 7.11485 11.0964 7.28566C10.6857 7.45195 10.3257 7.59772 10.0252 7.62569C10.0251 7.62569 10.0251 7.6257 10.025 7.6257C9.99099 7.62886 9.95772 7.63051 9.92523 7.63051C9.80364 7.63051 9.67596 7.61069 9.54238 7.57708C9.37956 7.53612 9.20797 7.47468 9.02792 7.40372C8.92744 7.36411 8.82433 7.32154 8.71863 7.27791C8.14996 7.04313 7.50666 6.77755 6.79735 6.77755C4.40478 6.77755 1.97468 8.80174 1.97468 12.6209C1.97468 15.0014 2.87191 17.5093 3.98102 19.1261C4.94051 20.5009 5.77548 21.6212 6.97183 21.6212C7.53918 21.6212 7.95518 21.4409 8.39263 21.2512C8.87762 21.0409 9.38895 20.8192 10.1621 20.8192C10.9428 20.8192 11.4095 21.0273 11.8596 21.2281C12.2789 21.4151 12.6839 21.5957 13.3149 21.5957C14.6234 21.5957 15.4833 20.3864 16.3057 19.177C16.7086 18.5764 17.0092 17.9807 17.221 17.4949C17.2936 17.3284 17.3558 17.1747 17.4081 17.0383C17.5525 16.6615 17.6216 16.4154 17.6267 16.3891C17.5519 16.3637 15.0471 15.3325 15.0471 12.4172C15.0471 10.3096 16.4237 9.17216 16.9404 8.80391C16.9967 8.76379 17.0428 8.7328 17.0758 8.71068C17.0771 8.70979 17.0784 8.70892 17.0797 8.70806C17.1039 8.69183 17.1205 8.68069 17.1283 8.67453C17.0005 8.48747 16.8661 8.31836 16.7272 8.16548C16.601 8.02657 16.471 7.90106 16.3388 7.78766C15.1413 6.76039 13.76 6.72674 13.3148 6.72664C13.0375 6.72664 12.7697 6.75992 12.5128 6.8137Z" fill="black"/>
</svg>
