<svg width="25" height="17" viewBox="0 0 25 17" fill="none" xmlns="http://www.w3.org/2000/svg">
<path d="M21.9423 14.2968C21.5767 16.0021 20.1844 16.9609 18.7658 16.9973C17.529 17.0284 15.9252 16.3045 15.4202 14.2968H15.0937C12.6813 14.2968 11.6155 14.3008 9.2038 14.2909C8.93852 14.2909 8.83551 14.361 8.77087 14.6217C8.43827 15.9584 7.15499 16.943 5.70811 16.9979C4.34672 17.0489 2.99814 16.1516 2.54367 14.8897C2.32957 14.2942 2.32957 14.2942 1.69466 14.2942H0.834874C0.16159 14.2942 0 14.138 0 13.4856V3.91402C0 2.86941 0 1.82457 0 0.779516C0 0.183981 0.171687 0.00796867 0.765524 0.00796867C5.37281 0.00796867 8.6342 0.0198777 13.2415 2.64981e-05C14.6978 -0.00592886 15.9198 0.992587 16.0814 2.35239C16.107 2.56877 16.2369 2.56215 16.3918 2.56215C17.1007 2.56215 17.8097 2.56877 18.5187 2.56215C19.602 2.54892 20.4362 2.98234 21.028 3.87498C21.302 4.28854 21.5996 4.68821 21.8622 5.10972C22.4446 6.06265 23.1739 6.92095 24.0241 7.65398C24.7129 8.24224 25.0105 9.00453 24.9997 9.90048C24.9863 11.1028 24.9997 12.3051 24.9963 13.5074C24.9963 14.1361 24.8294 14.2975 24.1783 14.3015C23.437 14.2975 22.6957 14.2968 21.9423 14.2968ZM23.8949 13.2136V10.6866C23.8949 9.01048 23.8949 9.01379 22.6654 7.85183C22.5909 7.77719 22.5011 7.71895 22.402 7.68096C22.3029 7.64298 22.1967 7.62611 22.0905 7.63148C19.9986 7.63943 17.9067 7.63678 15.8148 7.63612C15.1812 7.63612 15.023 7.48061 15.0223 6.85927C15.0223 5.53586 15.0223 4.20782 15.0223 2.88176C15.0183 1.72708 14.3699 1.09515 13.1937 1.09515C8.8382 1.09515 5.82997 1.09515 1.47449 1.09515C1.35465 1.09515 1.23481 1.10574 1.12641 1.11103V13.2064H2.36323C2.81366 11.4641 4.08078 10.5946 5.44889 10.5642C7.2883 10.5231 8.38979 11.515 8.8786 13.2156H15.433C15.8733 11.6156 16.8934 10.6065 18.5975 10.5688C20.3985 10.5284 21.4838 11.5428 21.9484 13.2156L23.8949 13.2136ZM18.7388 11.6295C17.5572 11.5918 16.5507 12.5327 16.4982 13.7218C16.4483 14.8679 17.4286 15.873 18.6372 15.916C19.8154 15.9577 20.826 15.0102 20.8725 13.8211C20.9189 12.6611 19.9521 11.6679 18.7402 11.6295H18.7388ZM3.42702 13.7807C3.43409 14.3486 3.66807 14.8909 4.07847 15.2906C4.48887 15.6904 5.04277 15.9155 5.62058 15.9174C6.81633 15.9114 7.8101 14.9248 7.79663 13.7622C7.79413 13.1927 7.56155 12.6475 7.15005 12.2466C6.73855 11.8456 6.18185 11.6218 5.6024 11.6242C5.02295 11.6267 4.46823 11.8553 4.06027 12.2597C3.65231 12.6641 3.42452 13.2112 3.42702 13.7807ZM21.5384 6.54298C20.9627 5.71981 20.4544 4.93371 19.876 4.20054C19.6841 3.95703 19.3212 3.72345 19.0223 3.7036C18.0709 3.64073 17.1129 3.68044 16.1379 3.68044V6.54298H21.5384Z" fill="black"/>
<path d="M8.57253 7.25117C7.20433 7.25117 5.83703 7.25117 4.47063 7.25117C4.32273 7.25647 4.17472 7.24473 4.02951 7.2162C3.91594 7.18912 3.81452 7.12525 3.74104 7.03453C3.66755 6.94382 3.62613 6.83135 3.62321 6.71464C3.6203 6.59793 3.65605 6.48353 3.72492 6.38926C3.79378 6.29499 3.89188 6.22613 4.00395 6.19341C4.14738 6.15725 4.29525 6.14185 4.44305 6.14769C7.20007 6.14769 8.61691 6.14769 11.3766 6.14769C11.9361 6.14769 12.203 6.32185 12.2151 6.68968C12.2272 7.0575 11.9462 7.25453 11.3692 7.25453L8.57253 7.25117Z" fill="black"/>
<path d="M9.31007 4.47446C8.57038 4.47446 9.17558 4.47782 8.43589 4.47446C8.00956 4.47446 7.74731 4.25323 7.75403 3.92238C7.76076 3.60432 8.01696 3.38914 8.42043 3.38779C9.91257 3.38376 10.0598 3.38376 11.552 3.38779C11.9649 3.38779 12.2076 3.59625 12.2137 3.92575C12.2191 4.26735 11.9716 4.47379 11.5332 4.47648C10.7908 4.47782 10.0504 4.47446 9.31007 4.47446Z" fill="black"/>
<path d="M10.0126 9.19819C10.5364 9.19819 11.0603 9.19281 11.5841 9.19819C11.9613 9.2029 12.2054 9.41875 12.2142 9.73278C12.2229 10.0468 11.9916 10.2862 11.609 10.2896C10.5492 10.2997 10.8343 10.299 9.77521 10.2896C9.39058 10.2862 9.16464 10.0609 9.17002 9.73749C9.1754 9.41404 9.40873 9.20357 9.78866 9.19954C10.3071 9.19281 9.48607 9.19819 10.0126 9.19819Z" fill="black"/>
</svg>
